HIERARCHY
ROOT Hips
{
	OFFSET 0.000000 100.481300 0.000000
	CHANNELS 6 Xposition Yposition Zposition Xrotation Yrotation Zrotation 
	JOINT Spine
	{
		OFFSET -0.279200 12.230698 -2.892100
		CHANNELS 3 Xrotation Yrotation Zrotation
		JOINT Spine1
		{
			OFFSET -0.232667 10.192268 -1.242267
			CHANNELS 3 Xrotation Yrotation Zrotation
			JOINT Spine1_split
			{
				OFFSET -0.232667 10.192268 -1.242267
				CHANNELS 3 Xrotation Yrotation Zrotation
				JOINT Spine2
				{
					OFFSET -0.232667 10.192268 -1.242267
					CHANNELS 3 Xrotation Yrotation Zrotation
					JOINT Neck
					{
						OFFSET -0.418800 17.814194 8.416900
						CHANNELS 3 Xrotation Yrotation Zrotation
						JOINT Head
						{
							OFFSET 0.000000 7.031097 3.806800
							CHANNELS 3 Xrotation Yrotation Zrotation
							JOINT HeadTop_End
							{
								OFFSET 0.000000 24.646606 12.978600
								CHANNELS 3 Xrotation Yrotation Zrotation
								End Site
								{
									OFFSET 0.000000 0.000000 0.000000
								}
							}
						}
					}
					JOINT LeftShoulder
					{
						OFFSET 8.476499 7.247704 -3.868750
						CHANNELS 3 Xrotation Yrotation Zrotation
						JOINT LeftShoulder_split
						{
							OFFSET 8.476499 7.247704 -3.868750
							CHANNELS 3 Xrotation Yrotation Zrotation
							JOINT LeftArm
							{
								OFFSET 9.308998 -2.777710 0.208600
								CHANNELS 3 Xrotation Yrotation Zrotation
								JOINT LeftForeArm
								{
									OFFSET 29.972298 0.000000 0.000000
									CHANNELS 3 Xrotation Yrotation Zrotation
									JOINT LeftHand
									{
										OFFSET 26.026505 0.000000 0.000000
										CHANNELS 3 Xrotation Yrotation Zrotation
										JOINT LeftHandThumb1
										{
											OFFSET 12.240501 -7.147949 9.207150
											CHANNELS 3 Xrotation Yrotation Zrotation
											JOINT LeftHandThumb2
											{
												OFFSET 4.138618 -2.389435 2.389433
												CHANNELS 3 Xrotation Yrotation Zrotation
												JOINT LeftHandThumb3
												{
													OFFSET 2.726913 -1.574387 1.574386
													CHANNELS 3 Xrotation Yrotation Zrotation
													JOINT LeftHandThumb4
													{
														OFFSET 3.941010 -2.275345 2.275342
														CHANNELS 3 Xrotation Yrotation Zrotation
														End Site
														{
															OFFSET 0.000000 0.000000 0.000000
														}
													}
												}
											}
										}
										JOINT LeftHandIndex1
										{
											OFFSET 24.424698 -1.985611 5.953459
											CHANNELS 3 Xrotation Yrotation Zrotation
											JOINT LeftHandIndex2
											{
												OFFSET 6.426697 0.000000 0.000000
												CHANNELS 3 Xrotation Yrotation Zrotation
												JOINT LeftHandIndex3
												{
													OFFSET 5.337898 0.000000 0.000000
													CHANNELS 3 Xrotation Yrotation Zrotation
													JOINT LeftHandIndex4
													{
														OFFSET 4.409401 0.000000 0.000000
														CHANNELS 3 Xrotation Yrotation Zrotation
														End Site
														{
															OFFSET 0.000000 0.000000 0.000000
														}
													}
												}
											}
										}
										JOINT LeftHandMiddle1
										{
											OFFSET 23.810104 0.000000 0.000000
											CHANNELS 3 Xrotation Yrotation Zrotation
											JOINT LeftHandMiddle2
											{
												OFFSET 7.176498 0.000000 0.000000
												CHANNELS 3 Xrotation Yrotation Zrotation
												JOINT LeftHandMiddle3
												{
													OFFSET 6.774902 0.000000 0.000000
													CHANNELS 3 Xrotation Yrotation Zrotation
													JOINT LeftHandMiddle4
													{
														OFFSET 5.403328 0.000000 0.000000
														CHANNELS 3 Xrotation Yrotation Zrotation
														End Site
														{
															OFFSET 0.000000 0.000000 0.000000
														}
													}
												}
											}
										}
										JOINT LeftHandRing1
										{
											OFFSET 22.908401 -0.839279 -6.020567
											CHANNELS 3 Xrotation Yrotation Zrotation
											JOINT LeftHandRing2
											{
												OFFSET 6.337502 0.000000 0.000000
												CHANNELS 3 Xrotation Yrotation Zrotation
												JOINT LeftHandRing3
												{
													OFFSET 5.779297 0.000000 0.000000
													CHANNELS 3 Xrotation Yrotation Zrotation
													JOINT LeftHandRing4
													{
														OFFSET 4.965698 0.000000 0.000000
														CHANNELS 3 Xrotation Yrotation Zrotation
														End Site
														{
															OFFSET 0.000000 0.000000 0.000000
														}
													}
												}
											}
										}
										JOINT LeftHandPinky1
										{
											OFFSET 20.037003 -1.530319 -10.950146
											CHANNELS 3 Xrotation Yrotation Zrotation
											JOINT LeftHandPinky2
											{
												OFFSET 5.254700 0.000000 0.000000
												CHANNELS 3 Xrotation Yrotation Zrotation
												JOINT LeftHandPinky3
												{
													OFFSET 4.810204 0.000000 0.000000
													CHANNELS 3 Xrotation Yrotation Zrotation
													JOINT LeftHandPinky4
													{
														OFFSET 3.647202 0.000000 0.000000
														CHANNELS 3 Xrotation Yrotation Zrotation
														End Site
														{
															OFFSET 0.000000 0.000000 0.000000
														}
													}
												}
											}
										}
									}
								}
							}
						}
					}
					JOINT RightShoulder
					{
						OFFSET -7.570500 7.247704 -3.868750
						CHANNELS 3 Xrotation Yrotation Zrotation
						JOINT RightShoulder_split
						{
							OFFSET -7.570500 7.247704 -3.868750
							CHANNELS 3 Xrotation Yrotation Zrotation
							JOINT RightArm
							{
								OFFSET -9.308998 -2.777710 0.208500
								CHANNELS 3 Xrotation Yrotation Zrotation
								JOINT RightForeArm
								{
									OFFSET -29.972300 0.000000 0.000000
									CHANNELS 3 Xrotation Yrotation Zrotation
									JOINT RightHand
									{
										OFFSET -26.026505 0.000000 0.000000
										CHANNELS 3 Xrotation Yrotation Zrotation
										JOINT RightHandThumb1
										{
											OFFSET -12.240601 -7.148026 9.207092
											CHANNELS 3 Xrotation Yrotation Zrotation
											JOINT RightHandThumb2
											{
												OFFSET -4.138618 -2.389435 2.389433
												CHANNELS 3 Xrotation Yrotation Zrotation
												JOINT RightHandThumb3
												{
													OFFSET -2.726974 -1.574417 1.574421
													CHANNELS 3 Xrotation Yrotation Zrotation
													JOINT RightHandThumb4
													{
														OFFSET -3.941010 -2.275345 2.275343
														CHANNELS 3 Xrotation Yrotation Zrotation
														End Site
														{
															OFFSET 0.000000 0.000000 0.000000
														}
													}
												}
											}
										}
										JOINT RightHandIndex1
										{
											OFFSET -24.424698 -1.985657 5.953444
											CHANNELS 3 Xrotation Yrotation Zrotation
											JOINT RightHandIndex2
											{
												OFFSET -6.426697 0.000000 0.000000
												CHANNELS 3 Xrotation Yrotation Zrotation
												JOINT RightHandIndex3
												{
													OFFSET -5.337898 0.000000 0.000000
													CHANNELS 3 Xrotation Yrotation Zrotation
													JOINT RightHandIndex4
													{
														OFFSET -4.409401 0.000000 0.000000
														CHANNELS 3 Xrotation Yrotation Zrotation
														End Site
														{
															OFFSET 0.000000 0.000000 0.000000
														}
													}
												}
											}
										}
										JOINT RightHandMiddle1
										{
											OFFSET -23.810097 0.000000 0.000000
											CHANNELS 3 Xrotation Yrotation Zrotation
											JOINT RightHandMiddle2
											{
												OFFSET -7.176498 0.000000 0.000000
												CHANNELS 3 Xrotation Yrotation Zrotation
												JOINT RightHandMiddle3
												{
													OFFSET -6.774902 0.000000 0.000000
													CHANNELS 3 Xrotation Yrotation Zrotation
													JOINT RightHandMiddle4
													{
														OFFSET -5.403328 0.000000 0.000000
														CHANNELS 3 Xrotation Yrotation Zrotation
														End Site
														{
															OFFSET 0.000000 0.000000 0.000000
														}
													}
												}
											}
										}
										JOINT RightHandRing1
										{
											OFFSET -22.908302 -0.839325 -6.020576
											CHANNELS 3 Xrotation Yrotation Zrotation
											JOINT RightHandRing2
											{
												OFFSET -6.337502 0.000000 0.000000
												CHANNELS 3 Xrotation Yrotation Zrotation
												JOINT RightHandRing3
												{
													OFFSET -5.779297 0.000000 0.000000
													CHANNELS 3 Xrotation Yrotation Zrotation
													JOINT RightHandRing4
													{
														OFFSET -4.965698 0.000000 0.000000
														CHANNELS 3 Xrotation Yrotation Zrotation
														End Site
														{
															OFFSET 0.000000 0.000000 0.000000
														}
													}
												}
											}
										}
										JOINT RightHandPinky1
										{
											OFFSET -20.037003 -1.530334 -10.950259
											CHANNELS 3 Xrotation Yrotation Zrotation
											JOINT RightHandPinky2
											{
												OFFSET -5.254700 0.000000 0.000000
												CHANNELS 3 Xrotation Yrotation Zrotation
												JOINT RightHandPinky3
												{
													OFFSET -4.810204 0.000000 0.000000
													CHANNELS 3 Xrotation Yrotation Zrotation
													JOINT RightHandPinky4
													{
														OFFSET -3.647202 0.000000 0.000000
														CHANNELS 3 Xrotation Yrotation Zrotation
														End Site
														{
															OFFSET 0.000000 0.000000 0.000000
														}
													}
												}
											}
										}
									}
								}
							}
						}
					}
				}
			}
		}
	}
	JOINT LeftUpLeg
	{
		OFFSET 15.427100 -6.655098 0.678600
		CHANNELS 3 Xrotation Yrotation Zrotation
		JOINT LeftLeg
		{
			OFFSET 4.081073 -39.591068 13.024000
			CHANNELS 3 Xrotation Yrotation Zrotation
			JOINT LeftFoot
			{
				OFFSET -4.081074 -37.707932 -15.979700
				CHANNELS 3 Xrotation Yrotation Zrotation
				JOINT LeftToeBase
				{
					OFFSET 5.346399 -15.068900 20.645000
					CHANNELS 3 Xrotation Yrotation Zrotation
					JOINT LeftToe_End
					{
						OFFSET 2.754700 0.931300 11.300900
						CHANNELS 3 Xrotation Yrotation Zrotation
						End Site
						{
							OFFSET 0.000000 0.000000 0.000000
						}
					}
				}
			}
		}
	}
	JOINT RightUpLeg
	{
		OFFSET -15.569500 -6.655098 0.678600
		CHANNELS 3 Xrotation Yrotation Zrotation
		JOINT RightLeg
		{
			OFFSET -4.081825 -39.591045 13.023800
			CHANNELS 3 Xrotation Yrotation Zrotation
			JOINT RightFoot
			{
				OFFSET 4.081824 -37.707954 -15.979600
				CHANNELS 3 Xrotation Yrotation Zrotation
				JOINT RightToeBase
				{
					OFFSET -5.346400 -15.068900 20.645000
					CHANNELS 3 Xrotation Yrotation Zrotation
					JOINT RightToe_End
					{
						OFFSET -2.754700 0.931300 11.300900
						CHANNELS 3 Xrotation Yrotation Zrotation
						End Site
						{
							OFFSET 0.000000 0.000000 0.000000
						}
					}
				}
			}
		}
	}
}
MOTION
Frames: 4
Frame Time: 0.016667
-8.155702 68.086205 13.214149 14.725896 42.997923 -6.952398 8.111671 11.196987 0.100026 2.381659 15.778994 -0.339814 0.000000 0.000000 0.000000 2.404001 15.779117 -0.339337 24.492240 -34.509592 6.782143 -25.202420 -35.567476 -2.580325 0.000000 0.000001 0.000001 3.133501 -2.562298 -3.584632 0.000000 0.000000 0.000000 -38.240768 7.071604 -29.653570 51.130332 1.007857 17.797863 -12.087049 -6.543407 6.823679 0.717867 -6.071443 10.111285 2.373400 19.986131 -2.038326 -3.156280 -10.994064 -3.942395 0.000000 0.000001 0.000001 9.749538 -2.596997 0.987094 -0.005778 0.241066 -8.886554 0.009871 0.192785 -9.303295 0.000001 0.000003 -0.000001 9.008214 3.812755 -14.287948 0.043537 0.559754 -9.088823 0.044218 0.054285 -10.038837 -0.000001 -0.000001 0.000001 10.700115 16.687173 -35.234835 0.141865 0.238700 -28.896929 0.239549 0.766369 -30.524874 0.000000 -0.000000 0.000001 11.696315 25.216707 -38.134080 0.132795 0.212988 -32.263543 0.143917 0.181169 -33.269230 0.000000 0.000001 0.000000 -3.243335 8.889432 -18.987004 0.000000 0.000000 0.000000 -18.337453 -10.441371 2.113098 144.016601 167.285922 -173.359408 -12.660206 -2.965767 -5.790692 9.279838 0.855323 2.186159 1.377838 -17.419904 3.021606 -5.063635 15.450289 6.710047 -0.000000 -0.000000 -0.000000 8.977430 0.914866 -26.573706 -0.055942 -0.245633 0.029066 0.065523 -0.173591 -17.321165 0.000001 -0.000002 0.000000 7.645423 -7.256354 -8.401655 0.102449 -0.524312 3.712650 0.060553 0.026537 0.025057 0.000002 0.000000 -0.000000 6.495341 -19.152609 6.388318 0.205309 -0.177343 17.221794 0.114117 -0.673279 13.330228 0.000001 0.000001 -0.000001 8.267278 -27.952798 40.018075 0.357927 -0.175322 49.203184 0.350000 -0.160387 46.676488 0.000001 0.000003 -0.000001 -74.805830 -4.411587 -39.880412 61.302608 -42.214578 7.980095 9.720905 0.356881 -3.195436 -0.265511 1.013632 0.842656 -0.000000 0.000002 0.000000 34.623626 -46.565153 14.781166 37.904189 18.969583 -6.485984 -35.357400 -0.434212 -8.113589 -38.110936 -9.554898 7.601550 0.000000 -0.000000 -0.000000 
-7.920695 68.275894 13.232853 14.361482 41.583134 -6.690726 8.137359 11.115600 0.114626 2.453882 15.715408 -0.410860 0.000000 0.000000 0.000000 2.476205 15.715458 -0.410369 24.483098 -34.297819 7.138968 -25.083004 -35.421955 -2.270464 -0.000000 -0.000001 -0.000001 3.030145 -2.053828 -3.444219 0.000000 0.000000 0.000000 -34.893630 7.814694 -28.841420 51.215245 1.798508 17.534542 -13.743615 -6.963591 5.081475 0.690157 -6.257982 9.347853 2.373403 19.986132 -2.038328 -2.950733 -10.470255 -3.633098 0.000001 0.000002 0.000000 9.889670 -2.215685 0.150828 -0.005915 0.241160 -9.214046 0.009824 0.193477 -9.661957 0.000001 0.000003 -0.000001 9.055374 4.126242 -14.668277 0.045016 0.562289 -9.437242 0.047233 0.056823 -10.514601 0.000001 0.000001 0.000001 10.739777 16.814775 -35.132171 0.137647 0.239645 -28.699324 0.240172 0.766214 -30.516022 0.000001 0.000002 0.000000 11.760300 25.391536 -38.044331 0.132618 0.213284 -32.330369 0.143589 0.180793 -33.328157 0.000000 0.000002 -0.000000 -3.234085 9.381075 -18.988028 0.000000 0.000000 0.000000 -20.179970 -10.125699 2.111669 144.235208 166.478758 -172.151599 -12.150577 -4.188260 -6.691111 9.387996 0.822775 2.124782 1.377821 -17.419911 3.021615 -4.907273 15.110207 6.489215 -0.000002 0.000000 -0.000001 9.067876 0.695030 -25.814418 -0.051501 -0.245696 0.064856 0.066200 -0.173241 -16.533793 0.000001 0.000001 -0.000000 7.626675 -7.125898 -7.923825 0.102858 -0.525823 3.951775 0.065257 0.024137 0.731380 -0.000003 0.000000 0.000000 6.454384 -18.622970 6.787664 0.200241 -0.179015 17.261572 0.120332 -0.674340 13.794703 -0.000002 -0.000001 -0.000000 7.978919 -28.024626 39.947143 0.355171 -0.175854 48.983306 0.349393 -0.160628 46.700483 -0.000000 0.000001 -0.000001 -74.570291 -4.543449 -38.932556 61.339354 -41.563224 7.850543 9.309019 0.272810 -3.037453 -0.256862 1.016467 0.841999 -0.000000 0.000001 -0.000000 33.363384 -45.611549 13.409126 38.149660 19.443662 -6.536357 -35.069299 -0.644902 -8.450072 -38.205251 -9.490787 7.529550 0.000000 0.000000 0.000000 
-7.656605 68.469200 13.251722 13.884835 40.006819 -6.351141 8.152745 11.025992 0.121068 2.510245 15.645952 -0.515672 0.000000 0.000000 0.000000 2.532587 15.646051 -0.515183 24.400711 -34.088258 7.703142 -24.875704 -35.237639 -1.959296 -0.000000 -0.000000 0.000000 2.904504 -1.393841 -3.364780 0.000000 0.000000 0.000000 -31.432667 8.742961 -28.038415 51.355701 2.474090 17.546585 -14.985693 -7.308007 3.153649 0.630771 -6.463490 8.584040 2.373402 19.986129 -2.038324 -2.743505 -9.931748 -3.318167 0.000000 -0.000000 -0.000000 10.025388 -1.815691 -0.661311 -0.006055 0.241269 -9.522516 0.009770 0.194143 -10.001430 -0.000001 -0.000001 -0.000002 9.103785 4.430289 -15.033803 0.046501 0.564841 -9.784031 0.050447 0.059388 -10.997543 0.000002 0.000001 0.000004 10.772710 16.882102 -35.025295 0.133037 0.240880 -28.494052 0.240795 0.766054 -30.504540 -0.000000 -0.000002 -0.000000 11.843064 25.575857 -38.001130 0.132606 0.213765 -32.423864 0.143450 0.180476 -33.410079 0.000001 -0.000001 -0.000000 -3.144801 9.710541 -18.951717 0.000000 0.000000 0.000000 -22.316883 -9.294429 2.336562 144.310860 166.066187 -170.952108 -11.502442 -5.129973 -7.348355 9.669551 0.616314 2.214281 1.377787 -17.419918 3.021582 -4.745884 14.753909 6.259266 -0.000002 0.000000 -0.000000 9.166963 0.351639 -24.705371 -0.047724 -0.246348 0.536661 0.066981 -0.173071 -15.598996 -0.000000 -0.000000 -0.000001 7.623394 -7.047101 -7.050680 0.103808 -0.528115 4.369239 0.071339 0.020569 1.697997 0.000001 0.000000 -0.000000 6.475536 -18.077219 7.614137 0.194435 -0.181339 17.489901 0.129080 -0.676374 14.525970 -0.000000 -0.000000 0.000001 7.820556 -27.942574 40.349998 0.353086 -0.176035 48.987128 0.349753 -0.160754 46.999116 -0.000000 0.000000 -0.000001 -74.238392 -4.646767 -37.865175 61.410784 -40.827708 7.702857 8.845193 0.177008 -2.870224 -0.247990 1.019542 0.841880 -0.000000 0.000000 0.000000 32.052097 -44.439113 11.602746 38.227394 18.688671 -6.569023 -34.824823 0.028347 -7.700376 -38.283702 -9.404791 7.448025 0.000000 -0.000000 0.000000 
-7.371463 68.657852 13.262010 13.324791 38.343425 -5.964554 8.179455 10.904886 0.129773 2.590917 15.519599 -0.627979 0.000000 0.000000 0.000000 2.613255 15.519675 -0.627484 23.964952 -33.896487 8.093915 -24.622560 -35.034229 -1.643726 -0.000000 -0.000000 0.000001 2.760275 -0.547899 -3.344334 0.000000 0.000000 0.000000 -27.854194 9.898191 -27.279946 51.514383 3.115321 17.933597 -15.929278 -7.467033 0.985771 0.527121 -6.696434 7.834170 2.373403 19.986131 -2.038325 -2.537526 -9.386658 -3.002686 0.000002 0.000002 0.000001 10.153735 -1.387410 -1.422230 -0.006222 0.241380 -9.803563 0.009701 0.194732 -10.309533 0.000000 -0.000000 0.000001 9.151823 4.724954 -15.358942 0.048167 0.567339 -10.114800 0.053792 0.061895 -11.473891 -0.000002 -0.000000 -0.000001 10.792663 16.881094 -34.884604 0.127715 0.242433 -28.266091 0.241172 0.765891 -30.473411 0.000000 -0.000002 -0.000000 11.932725 25.749494 -37.966723 0.132607 0.214267 -32.522096 0.143302 0.180230 -33.493359 -0.000000 -0.000002 -0.000000 -3.150915 9.830079 -18.703800 0.000000 0.000000 0.000000 -24.875214 -7.756470 2.628345 144.587346 165.957478 -169.821835 -10.795655 -5.821791 -7.801430 10.147159 0.218087 2.483472 1.377817 -17.419897 3.021635 -4.575790 14.374410 6.017083 -0.000002 0.000000 -0.000000 9.294103 -0.101598 -23.043790 -0.044943 -0.247244 1.135082 0.068436 -0.173253 -14.317379 0.000003 0.000002 -0.000002 7.644635 -7.010161 -5.719504 0.105633 -0.531395 5.013994 0.078686 0.015853 2.942626 -0.000002 0.000000 0.000000 6.566111 -17.505220 8.934419 0.187938 -0.184197 17.963239 0.140649 -0.679344 15.560009 -0.000002 -0.000002 -0.000002 7.824094 -27.677448 41.312495 0.351842 -0.175982 49.270164 0.351222 -0.160848 47.611446 -0.000001 -0.000000 0.000002 -73.833737 -4.754368 -36.750174 61.501489 -40.007806 7.550372 8.336583 0.073793 -2.722554 -0.238825 1.022739 0.842161 -0.000000 0.000000 -0.000000 30.829128 -43.346030 9.929176 38.454207 18.813770 -6.583682 -34.535742 0.125658 -7.584773 -38.340294 -9.301384 7.361504 -0.000000 0.000000 -0.000000 
